<?xml version="1.0" encoding="utf-8"?>
<!-- Generator: Adobe Illustrator 22.0.1, SVG Export Plug-In . SVG Version: 6.00 Build 0)  -->
<svg version="1.1" id="Bayer_Cross_with_Logotype" xmlns="http://www.w3.org/2000/svg" xmlns:xlink="http://www.w3.org/1999/xlink"
	 x="0px" y="0px" viewBox="0 0 678.7 228" style="enable-background:new 0 0 678.7 228;" xml:space="preserve">
<style type="text/css">
	.st0{fill:#10384F;}
	.st1{fill:#89D329;}
	.st2{fill:#00BCFF;}
</style>
<title>Corp-Logo_BG_Bayer-Cross-Logotype_Basic_on-screen_RGB</title>
<path class="st0" d="M108.5,34.3h13.1c1.4-0.1,2.5-1.3,2.5-2.8c-0.1-1.3-1.1-2.4-2.5-2.5h-13.1V34.3z M108.5,47h13.4
	c1.7,0,3-1.3,3-3s-1.3-3-3-3l0,0h-13.4V47z M129.5,37.4c3.8,3.7,3.8,9.7,0.2,13.5c-1.8,1.8-4.2,2.9-6.8,2.9H101V22.3h21.5
	c5.1,0,9.1,4.1,9.1,9.2C131.6,33.7,130.9,35.7,129.5,37.4L129.5,37.4z"/>
<path class="st0" d="M134.5,91.1h-8l-2.5-5.2h-17.6l-2.5,5.2h-8l15.7-31.4h7.3L134.5,91.1z M115.2,67.7l-5.5,11.4h11L115.2,67.7z"/>
<polygon class="st0" points="125.9,97.8 134.8,97.8 118.9,118.2 118.9,129.2 111.5,129.2 111.5,118.2 95.6,97.8 104.6,97.8 
	115.2,112.1 "/>
<polygon class="st0" points="167.4,97.8 167.4,104.5 146.5,104.5 146.5,109.8 166.7,109.8 166.7,116.5 146.5,116.5 146.5,122.4 
	167.4,122.4 167.4,129.2 139.1,129.2 139.1,97.8 "/>
<path class="st0" d="M190.5,117.2h-5.6v12h-7.5V97.8h19.1c5.4,0.1,9.7,4.5,9.6,9.8c0,4.2-2.8,7.9-6.9,9.2l9.2,12.4h-9L190.5,117.2z
	 M195.8,104.5h-10.9v6h10.9c1.7,0,3-1.3,3-3S197.4,104.5,195.8,104.5z"/>
<path class="st0" d="M99,129.2h-8l-2.5-5.2H71l-2.5,5.2h-8l15.7-31.4h7.3L99,129.2z M79.7,105.8l-5.5,11.4h11L79.7,105.8z"/>
<path class="st0" d="M32.4,109.8h13.1c1.4,0.1,2.7-1,2.8-2.5c0.1-1.4-1-2.7-2.5-2.8c-0.1,0-0.2,0-0.3,0H32.4V109.8z M32.4,122.5
	h13.5c1.7,0,3-1.3,3-3s-1.3-3-3-3H32.4V122.5z M53.4,112.8c3.8,3.7,3.8,9.7,0.2,13.5c-1.8,1.8-4.2,2.9-6.8,2.9H24.9V97.8h21.5
	c5.1,0,9.1,4.1,9.1,9.2C55.5,109.1,54.7,111.2,53.4,112.8L53.4,112.8z"/>
<polygon class="st0" points="129.4,135.9 129.4,142.6 108.5,142.6 108.5,147.8 128.6,147.8 128.6,154.6 108.5,154.6 108.5,160.5 
	129.4,160.5 129.4,167.3 101,167.3 101,135.9 "/>
<path class="st0" d="M124.2,184.4c0-1.7-1.3-3-3-3h-12.7v6h12.7C122.8,187.4,124.2,186.1,124.2,184.4z M101,206.1v-31.4h21
	c5.4,0,9.7,4.4,9.7,9.8c0,3.9-2.4,7.5-6,9l9.4,12.6h-9l-9-11.9h-8.6v11.9H101z"/>
<path class="st1" d="M228.4,107C224.5,44.5,170.6-3,108.2,0.9C51.1,4.4,5.6,49.9,2.1,107c0.1,2.4,0.4,4.7,0.7,7.1
	c7.1,56.7,55.3,99.3,112.5,99.3C63.1,213.3,19.9,173,16.1,121c-0.2-2.3-0.2-4.7-0.2-7s0.1-4.7,0.2-7c3.7-52,47-92.3,99.1-92.4
	c57.2,0,105.5,42.6,112.5,99.4c0.3,2.3,0.5,4.6,0.6,7c0.2-2.3,0.2-4.7,0.2-7S228.5,109.4,228.4,107"/>
<path class="st2" d="M2.1,121c3.9,62.5,57.7,110,120.2,106.1c57.1-3.6,102.5-49,106.1-106.1c-0.1-2.4-0.4-4.7-0.6-7.1
	c-7.1-56.7-55.4-99.3-112.5-99.3c52.1,0.1,95.3,40.3,99.1,92.3c0.2,2.3,0.2,4.7,0.2,7s-0.1,4.7-0.2,7c-3.8,52-47,92.2-99.1,92.3
	C58,213.3,9.8,170.7,2.7,113.9c-0.3-2.3-0.5-4.6-0.7-7c-0.1,2.3-0.2,4.7-0.2,7S1.9,118.6,2.1,121"/>
<path class="st0" d="M341.4,172.8c-5.4,1.4-12.8,1.9-19.1,1.9h-36.9v-121H311c20.4,0,25.8,0.5,33.4,4.6
	c10.7,5.6,16.3,14.2,16.3,25.3c0,12.6-7.2,22.3-22,26.7c18.3,4,27,15.5,27,31.3C365.8,158.4,355.4,169.1,341.4,172.8z M330.6,69.2
	c-2.8-0.9-6.1-1.2-12.3-1.2h-16.5v36.9H321c10.7,0,14.4-1.9,17.9-6.7c2.3-3.5,3.5-7.6,3.5-11.8C342.4,78,337.7,71.3,330.6,69.2z
	 M334.1,119.9c-4.2-0.8-8.4-1.1-12.6-1H302v42.1h23.9c10,0,21.2-6,21.2-21.4C347.1,129.8,341.7,121.7,334.1,119.9L334.1,119.9z"/>
<path class="st0" d="M435.3,165.8c-2.4,2.8-10.1,11.6-26.2,11.6c-18.4,0-29.9-9-29.9-25.8c0-20.4,17.1-31.3,47-31.3
	c2.2,0,4.1,0,6.5,0.2v-5.8c0-10.4-1.5-17.4-14.4-17.4c-9.8,0-20.8,4.6-28.4,10l-7.7-11.6c9-4.9,20.8-11.6,38.7-11.6
	c13.5,0,23.2,4.7,26.7,14c1.5,3.9,1.9,6.8,1.9,15.4c0,6.3-0.7,19.8-0.7,32.7c0,12.1,0.1,16.9,7.3,21.1l-8,11.3
	C442.2,176.4,437.5,171.7,435.3,165.8z M426.9,131.2c-12.7,0-20.5,2.3-24.2,6.3c-3.5,3.9-4.8,7-4.8,12.8c0,9.7,5.2,15.3,14.6,15.3
	c7.8,0,15.1-4.6,19.4-11.6l0.5-22.5C429.8,131.3,428.3,131.2,426.9,131.2z"/>
<path class="st0" d="M560.4,136.3c0,7.6,1.1,13.4,3.7,17.6c4.6,7,11.8,10.4,20.2,10.4c8,0.1,15.7-3,21.6-8.4l6.1,9.6
	c-8.4,7.4-19.2,11.4-30.4,11.2c-24.4,0-39.3-17.7-39.3-46.5c0-15.3,3-25.1,10.5-34.1c7-8.2,15.6-12.1,26.5-12.1
	c9.8,0,17.7,3.2,23.9,9.5c7.7,7.9,10.5,17.7,10.7,37.9v2.9h-53.6V136.3z M591.7,102.4c-3-3.9-7.7-6.2-12.6-6.2
	c-12.3,0-18.5,10-18.5,26h36.5C597.2,113.8,595.2,106.8,591.7,102.4z"/>
<path class="st0" d="M666.5,100.1c-9.8,0-18.3,8.2-18.3,17.9v56.7H632v-64.6c0-10.7-1.2-16.5-3.3-22l15.6-4c1.9,4.3,2.9,8.9,3,13.5
	v1.6c7-10.2,14.6-15.3,23.9-15.3c1.9,0,3.8,0.4,5.7,1l-5.8,16C669.6,100.4,668,100.1,666.5,100.1z"/>
<path class="st0" d="M500.7,154.2l22-67.5h17.9L506.4,180c-4.5,12.5-9.2,20.1-15.6,25.2c-5.1,3.8-11,6.4-17.2,7.6l-5.4-10.6
	c6.4-1.4,12.1-5,16.1-10.1c3-3.5,6.4-7.8,9.9-17.8l-34.7-84.7l15.8-4.4c0,0,21.1,57.1,25.2,68.9H500.7z"/>
</svg>
