<svg id="Layer_1" data-name="Layer 1" xmlns="http://www.w3.org/2000/svg" viewBox="0 0 472.63 139.11"><defs><style>.cls-1{fill:#0093d6}</style></defs><path class="cls-1" d="M78.82 72.71c-9.79 2.34-12.29 14-22.69 16.1C44.33 91.23 36.87 82 34.59 71c-1.86-9.09-.26-22.47 12.85-24.44 11.51-1.73 14.2 10.26 27 7.73C82 52.76 85.7 46.8 83.93 39.17c-2.79-11.56-21.14-20-41.28-15.91-25.9 5.33-43.42 28.43-37.72 57.4 5.89 29.94 34.19 39.64 56.58 34.75 28.8-6.3 33.84-26.7 32.27-33.43a12.27 12.27 0 0 0-14.96-9.27zm181.04-35.28c-6-16.09-30.3-31.81-60.17-15.78-30.88 16.58-28.75 45.69-20.86 62.71 13.64 29.39 41.57 31.27 63.35 21.17 12.66-5.88 20.11-13 24.53-19.55 8.49-12.57 4.2-21.55-1.54-24.78-6.91-3.9-15.32-1.62-19.3 6.6C243 73.82 241.75 80 231.52 84a18.15 18.15 0 0 1-22.14-7.33s33.07-15 42.81-20.75c7.53-4.43 10.64-10.56 7.67-18.49zM201.5 59.56s-4.93-14.25 8.72-20.56 21.26 6.68 21.26 6.68z" transform="translate(-3.85)"/><path class="cls-1" d="M149.7 35c-15.92-1.41-24.88 7.79-24.88 7.79h-.32l2.32-26.1a15.42 15.42 0 0 0-30.72-2.76L88.19 103a15.42 15.42 0 0 0 30.72 2.73l3.15-35.5c.86-9.93 7.58-13.57 13.42-13s11.72 6 10.94 15.22l-3.15 35.49a15.42 15.42 0 0 0 30.73 2.67l3.5-39.51c1.68-18.85-9.5-34.48-27.8-36.1zm231.75-17c-8.8-1.11-15.72 5-16.79 13.14l-6 45.4h-.35L346.05 43.1c-5-13.6-9.1-20.65-21.54-19.26S309.62 33 307.72 47.37s-4.66 35.32-4.66 35.32h-.36l-15.77-43C284.1 32 276 27.6 267.66 30.61a14.46 14.46 0 0 0-8.8 19.29c4 10 10.77 26 16.72 38.61 10.5 22.27 14.16 27.76 30.9 26.33 16.65-2.28 18.27-9.1 22.72-47.15h.36c12.7 36.14 15.78 42.44 32.52 41 16.64-2.28 19-8.45 24.36-32.48 3-13.62 6.11-30.73 7.83-41.34A14.45 14.45 0 0 0 381.45 18z" transform="translate(-3.85)"/><path class="cls-1" d="M465.94 27.81a15 15 0 0 0-19.26 9.8s-8.35 25.47-14.46 44.08h-.37L421 36.57a15.22 15.22 0 1 0-29.57 7.24s2 6.47 4.57 14.75c8.94 28.78 18.23 47.88 12.64 50.66-5 2.47-7.86-6.2-17.44-5.61-6.59.4-12.42 7.31-10.29 15.82 2.93 11.77 21.36 24.27 42.53 18 21.33-6.31 27.56-23.55 52.14-90.24a14.82 14.82 0 0 0-9.64-19.38z" transform="translate(-3.85)"/></svg>