<svg id="Layer_1" xmlns="http://www.w3.org/2000/svg" viewBox="0 0 223.4 36.7"><style>.st0{fill:#231f20}.st1{fill:#fff}.st2{fill:#ec1c24}</style><path class="st0" d="M223.1 2.3c0 1.2-1 2.2-2.2 2.2-1.2 0-2.2-1-2.2-2.2 0-1.2 1-2.2 2.3-2.2 1.1 0 2.1.9 2.1 2.2zm-3.9 0c0 1 .7 1.7 1.7 1.7.9 0 1.7-.8 1.7-1.7 0-1-.7-1.8-1.7-1.8s-1.7.8-1.7 1.8zm1.3 1.1h-.5V1.2c.2 0 .5-.1.8-.1.4 0 .6.1.7.2.1.1.2.3.2.5 0 .3-.2.4-.5.5.2.1.3.2.4.5.1.3.1.5.2.5h-.5c-.1-.1-.1-.3-.2-.5 0-.2-.2-.3-.4-.3h-.2v.9zm.1-1.2h.2c.3 0 .5-.1.5-.3 0-.2-.1-.3-.5-.3h-.3v.6zM38.3 0h177.8v36.7H38.3z"/><path class="st1" d="M59.9 6.8c-1.3-.5-3-.7-5.1-.7h-9.1v1.3h1.2c.8 0 1.4.2 1.8.7.1.2.4.7.4 2.6v15.5c0 1.7-.2 2.2-.3 2.4-.4.6-1 .8-1.9.8h-1.2v1.3h10.9v-1.3h-1.2c-.8 0-1.4-.2-1.7-.7-.2-.2-.4-.7-.4-2.6v-6.5c.6.1 1.2.2 1.7.3.7.1 1.3.1 1.9.1 2.4 0 4.3-.7 5.6-1.9 1.3-1.3 2-3 2-5 0-1.5-.4-2.8-1.3-3.9-1-1.1-2.1-1.9-3.3-2.4zm-6.8 1.7c.8-.2 1.4-.3 1.9-.3.9 0 1.7.2 2.4.6.7.4 1.2 1 1.6 1.8.4.8.6 1.8.6 2.8 0 1.4-.4 2.6-1.2 3.5-.8.9-1.8 1.3-2.9 1.3-.3 0-.7 0-1.2-.1-.4 0-.8-.1-1.3-.2V8.5zM86.6 6v1.3h1.2c.8 0 1.4.2 1.8.7.2.2.4.7.4 2.6v9.7c0 2.5-.2 4.2-.7 5.3-.4 1-1.2 1.8-2.4 2.4-1.2.7-2.5 1-4 1-1.2 0-2.1-.2-2.9-.6-.8-.4-1.4-.9-1.8-1.5-.4-.6-.7-1.5-.9-2.7-.2-1.3-.3-2.3-.3-3.2V10.5c0-1.6.2-2.2.4-2.5.3-.5.9-.8 1.8-.8h1.3V6h-11v1.3h1.2c.8 0 1.3.2 1.7.6.2.3.5 1 .5 2.7v9.3c0 3 .2 4.9.6 6 .6 1.6 1.6 2.9 3 3.8 1.4.9 3.5 1.4 6.1 1.4 2.5 0 4.4-.5 5.9-1.5s2.4-2.2 2.9-3.6.7-3.3.7-5.7v-9.7c0-1.7.2-2.2.3-2.4.4-.7 1.1-1 1.9-1h1.2V6h-8.9zM122.8 28.5c-.8-.5-1.7-1.5-2.8-3.1 0 0-3.6-5-4.7-6.4 1.8-.5 3.2-1.2 4.2-2.3 1-1.1 1.5-2.5 1.5-4.1 0-1.5-.5-2.7-1.3-3.8-.9-1-2-1.8-3.2-2.2-1.2-.4-3.2-.6-5.7-.6h-9v1.3h1.2c.8 0 1.4.2 1.8.7.2.2.4.7.4 2.6v15.5c0 1.7-.2 2.2-.3 2.4-.4.6-1 .8-1.9.8h-1.2v1.3h10.9v-1.3h-1.3c-.8 0-1.4-.2-1.7-.7-.1-.2-.4-.7-.4-2.6v-6.6h2l8.1 11.2h6.9v-1.3h-.3c-1.4 0-2.5-.3-3.2-.8zM109.1 8.4c1-.2 1.8-.3 2.4-.3 1.4 0 2.6.4 3.4 1.3.9.9 1.3 2 1.3 3.4s-.5 2.6-1.6 3.5c-1.1.9-2.7 1.4-4.9 1.4h-.6V8.4zM132.3 6.1v1.3h1.2c.5 0 1 .1 1.4.4.3.2.5.4.6.6.1.2.2.8.2 2.3v15.5c0 1.8-.2 2.3-.4 2.5-.4.5-1 .7-1.9.7h-1.2v1.3h10.9v-1.3H142c-.5 0-1-.1-1.4-.4-.3-.2-.5-.4-.6-.6-.1-.2-.2-.8-.2-2.3V10.7c0-1.8.2-2.3.4-2.5.4-.5 1-.7 1.8-.7h1.2V6.1h-10.9zM178.1 6.1h-9v1.3h1.2c.8 0 1.5.2 1.8.6.2.2.4.7.4 2.5v12.8L158.3 6.1h-7v1.3h.3c.7 0 1.1.1 1.4.2.7.2 1.1.4 1.5.7.3.2.8.7 1.4 1.5v16.5c0 1.7-.2 2.2-.3 2.4-.4.5-1 .8-1.9.8h-1.2v1.3h9v-1.3h-1.2c-.8 0-1.4-.2-1.8-.6-.1-.2-.4-.7-.4-2.5v-14l15.4 18.7h1.1V10.6c0-1.7.2-2.2.3-2.4.4-.5 1-.8 1.9-.8h1.2V6.1zM208.4 29.4c-.9-.1-1.6-.3-2.1-.7-.5-.4-1.1-1.4-1.7-3l-8.2-20.1h-1.2l-8.7 19.9c-.7 1.7-1.4 2.8-1.9 3.3-.1.1-.5.4-1.8.6l-.3.1v1.3h8.2v-1.3h-.3c-1.3-.1-1.9-.3-2.1-.5-.3-.2-.4-.4-.4-.7 0-.3.1-.8.6-2 0 0 1.2-2.7 1.5-3.5h8.8c.3.7 1.3 3.2 1.3 3.2.5 1.1.7 1.8.7 2.3 0 .3-.1.5-.4.7-.2.2-.6.4-1.7.4h-.3v1.3h10.2v-1.3h-.2zm-13.7-17.1l3.5 8.4H191l3.7-8.4z"/><path class="st2" d="M.3 0H37v36.7H.3z"/><path class="st1" d="M1.6 1.3h34v34.1h-34z"/><g><path class="st2" d="M2.9 23.6h10.5v10.5H2.9zM23.9 23.6h10.5v10.5H23.9zM13.4 13.1h10.5v10.5H13.4zM2.9 2.6h10.5v10.5H2.9zM23.9 2.6h10.5v10.5H23.9z"/></g></svg>